<?xml version="1.0" encoding="UTF-8" standalone="no"?>
<svg
   viewBox="0 0 64 64"
   version="1.1"
   id="svg2"
   sodipodi:docname="favicon.svg"
   xml:space="preserve"
   inkscape:version="1.4.3 (0d15f75042, 2025-12-25)"
   xmlns:inkscape="http://www.inkscape.org/namespaces/inkscape"
   xmlns:sodipodi="http://sodipodi.sourceforge.net/DTD/sodipodi-0.dtd"
   xmlns="http://www.w3.org/2000/svg"
   xmlns:svg="http://www.w3.org/2000/svg"><sodipodi:namedview
     id="namedview2"
     pagecolor="#ffffff"
     bordercolor="#000000"
     borderopacity="0.25"
     inkscape:showpageshadow="2"
     inkscape:pageopacity="0.0"
     inkscape:pagecheckerboard="0"
     inkscape:deskcolor="#d1d1d1"
     inkscape:zoom="4.1875"
     inkscape:cx="42.507463"
     inkscape:cy="51.462687"
     inkscape:window-width="1889"
     inkscape:window-height="1014"
     inkscape:window-x="0"
     inkscape:window-y="0"
     inkscape:window-maximized="0"
     inkscape:current-layer="svg2" /><defs
     id="defs2"><linearGradient
       id="bg"
       x1="0%"
       y1="0%"
       x2="100%"
       y2="100%"><stop
         offset="0%"
         stop-color="#0D1117"
         id="stop1" /><stop
         offset="100%"
         stop-color="#161B22"
         id="stop2" /></linearGradient></defs><circle
     cx="32"
     cy="32"
     r="30"
     fill="url(#bg)"
     stroke="#00877b"
     stroke-width="3"
     id="circle2"
     style="fill:#eae3d9;fill-opacity:1" /><path
     style="fill:#dec8ad;stroke-width:0.232929"
     d="m 37.96283,41.917241 c 0,-0.264005 0.01366,-0.372008 0.03034,-0.240005 0.01669,0.132003 0.01669,0.348007 0,0.480009 -0.01669,0.132003 -0.03034,0.024 -0.03034,-0.240004 z M 24.7202,41.178765 c 0,-0.223389 0.01411,-0.314776 0.03134,-0.203081 0.01723,0.111694 0.01723,0.294467 0,0.406162 -0.01723,0.111694 -0.03134,0.02031 -0.03134,-0.203081 z m -3.221536,-8.141699 -0.675533,-0.68309 0.69591,0.663089 c 0.646345,0.615864 0.730155,0.703094 0.675533,0.703094 -0.01121,0 -0.324367,-0.307393 -0.69591,-0.683093 z m -2.19733,-4.633937 c 0,-0.182773 0.01467,-0.257544 0.0326,-0.166157 0.01794,0.09139 0.01794,0.240928 0,0.332314 -0.01794,0.09139 -0.0326,0.01662 -0.0326,-0.166157 z m 24.303241,-6.240121 c 4.7e-4,-0.243697 0.01446,-0.334488 0.03121,-0.201758 0.01674,0.132729 0.01639,0.332118 -7.05e-4,0.443085 -0.01716,0.110968 -0.03087,0.0024 -0.03044,-0.241327 z m -0.0028,-0.923095 c 0,-0.182773 0.01467,-0.257543 0.0326,-0.166157 0.01794,0.09139 0.01794,0.240928 0,0.332314 -0.01794,0.09139 -0.0326,0.01662 -0.0326,-0.166157 z"
     id="path8" /><path
     style="fill:#dbbb95;stroke-width:0.232929"
     d="m 30.264934,51.877799 c -1.244035,-0.114701 -2.534382,-0.602052 -3.648825,-1.378126 -0.798714,-0.556206 -2.07915,-1.790368 -2.709002,-2.611101 -0.575696,-0.750165 -1.141953,-1.794587 -1.342412,-2.47599 l -0.112279,-0.381658 0.301827,-0.205313 c 0.455325,-0.309728 1.21073,-1.145877 1.472138,-1.629494 0.363957,-0.673333 0.500433,-1.224167 0.499826,-2.017352 -7.05e-4,-0.926144 -0.184978,-1.552815 -0.887346,-3.017767 -0.63645,-1.327456 -0.643672,-1.347769 -0.9389,-2.640555 -0.121707,-0.532949 -0.312901,-1.146463 -0.424874,-1.363363 -0.12169,-0.235716 -0.525534,-0.72228 -1.003883,-1.209503 -0.842784,-0.858423 -1.249252,-1.451858 -1.645815,-2.402868 -0.422935,-1.014243 -0.589302,-2.335642 -0.371023,-2.946893 0.105265,-0.294781 0.592945,-0.710453 0.759794,-0.647607 0.172452,0.06496 0.50686,0.774334 0.946017,2.006777 0.384855,1.080053 0.658359,1.706062 0.719258,1.646285 0.01657,-0.01627 -0.0065,-0.625974 -0.05134,-1.354876 -0.08902,-1.4476 -0.04825,-2.876382 0.09365,-3.282235 0.05082,-0.145355 0.373456,-0.549329 0.737232,-0.923095 0.723682,-0.743558 0.930013,-1.07862 1.36631,-2.21877 0.386378,-1.009702 0.526527,-1.271879 0.835057,-1.562177 0.331352,-0.311773 0.590613,-0.410756 1.978078,-0.755214 0.810531,-0.201223 1.322727,-0.373805 1.676179,-0.564777 0.99071,-0.535284 1.191252,-0.618266 1.675104,-0.69315 1.496284,-0.231567 4.543774,0.07735 6.242807,0.63283 1.359985,0.44463 2.412863,1.112129 2.954434,1.873041 0.335628,0.471556 0.677174,1.472014 0.806178,2.361457 0.103411,0.712987 0.288434,1.234377 0.776227,2.187376 0.582563,1.13815 0.61975,1.326529 0.607581,3.077929 -0.0059,0.842785 0.01288,1.532337 0.04162,1.532337 0.02874,0 0.147121,-0.373853 0.263061,-0.830785 0.476891,-1.879486 0.629784,-2.217441 1.191762,-2.634269 0.191239,-0.141847 0.56912,0.0245 0.634244,0.279193 0.08103,0.316912 -0.108731,1.337105 -0.428377,2.302995 -0.326224,0.985764 -0.460022,1.24351 -1.167499,2.249047 -0.59501,0.845687 -0.732213,1.1147 -1.167584,2.289278 -0.709459,1.914026 -1.352875,3.461141 -1.699743,4.08708 -1.330368,2.400707 -1.457311,2.841709 -1.187312,4.124781 0.139034,0.660703 0.476698,1.528249 0.756156,1.94276 0.108947,0.161599 0.362874,0.393342 0.564281,0.514988 l 0.366195,0.221169 -0.177394,0.462419 c -0.670257,1.747179 -1.816548,3.346144 -3.073695,4.287512 -1.67427,1.253713 -3.990476,1.873959 -6.227706,1.667684 z"
     id="path7" /><path
     style="fill:#a3a595;stroke-width:0.232929"
     d="m 9.1243225,52.440525 c 0.224753,-0.223389 0.42557,-0.406162 0.4462592,-0.406162 0.020689,0 -0.1462727,0.182773 -0.3710257,0.406162 -0.2247554,0.223389 -0.4255724,0.406162 -0.4462616,0.406162 -0.020689,0 0.1462727,-0.182773 0.3710281,-0.406162 z m 44.1226785,-1.1631 -0.600103,-0.609243 0.620677,0.58905 c 0.341372,0.323977 0.620676,0.598136 0.620676,0.609243 0,0.05386 -0.08389,-0.0232 -0.64125,-0.58905 z M 41.560204,30.378552 c 0.01079,-0.563812 0.04446,-0.502307 0.08088,0.147742 0.01194,0.21326 -0.0037,0.387725 -0.0347,0.3877 -0.03103,-2.6e-5 -0.05181,-0.240974 -0.04618,-0.535442 z M 21.784039,28.99391 c 0,-0.182773 0.01467,-0.257544 0.0326,-0.166157 0.01794,0.09139 0.01794,0.240927 0,0.332314 -0.01794,0.09139 -0.0326,0.01661 -0.0326,-0.166157 z M 40.349831,11.680918 c -0.04953,-0.05858 -0.197556,-0.119724 -0.328954,-0.135878 l -0.238906,-0.02937 0.232847,-0.01182 c 0.148878,-0.0075 0.281957,0.04144 0.369021,0.135878 0.07489,0.08123 0.11814,0.147695 0.09611,0.147695 -0.02203,0 -0.08059,-0.04793 -0.130114,-0.106502 z"
     id="path6" /><path
     style="fill:#349b8e;stroke-width:0.232929"
     d="m 17.224612,63.05612 c 7.62061,-0.01036 20.113131,-0.01036 27.761158,0 7.648031,0.01036 1.412987,0.01886 -13.855651,0.01886 -15.268637,0 -21.5261148,-0.0085 -13.905507,-0.01886 z M 37.261649,49.560468 c 0.224753,-0.223389 0.42557,-0.406162 0.446259,-0.406162 0.02069,0 -0.146273,0.182773 -0.371026,0.406162 -0.224755,0.223389 -0.425572,0.406162 -0.446261,0.406162 -0.02069,0 0.146272,-0.182773 0.371028,-0.406162 z M 25.258366,49.431235 24.960973,49.117382 25.280715,49.4093 c 0.175859,0.160554 0.319742,0.301787 0.319742,0.313852 0,0.05587 -0.06552,-3.7e-5 -0.342091,-0.291917 z"
     id="path5" /><path
     style="fill:#5e5c58;stroke-width:0.232929"
     d="m 41.650484,28.920062 c 0,-0.304621 0.01328,-0.429239 0.02951,-0.276928 0.01622,0.15231 0.01622,0.401546 0,0.553857 -0.01622,0.15231 -0.02951,0.02769 -0.02951,-0.276929 z M 21.713002,27.627729 c 2.35e-4,-0.284313 0.01394,-0.391572 0.03022,-0.238357 0.01629,0.153218 0.01601,0.385838 -7.05e-4,0.516933 -0.01662,0.131098 -0.02995,0.0057 -0.02961,-0.278576 z M 43.076145,27.03695 c 4.7e-4,-0.203081 0.01516,-0.277394 0.03247,-0.165141 0.0173,0.112253 0.01683,0.27841 -9.41e-4,0.369238 -0.01784,0.09083 -0.032,-9.23e-4 -0.03144,-0.204097 z m -4.125283,-5.815499 -0.297394,-0.313852 0.319743,0.291915 c 0.297355,0.27148 0.354312,0.33579 0.297393,0.33579 -0.0123,0 -0.156175,-0.141234 -0.319742,-0.313853 z m -7.837283,-2.103643 c 0.197796,-0.01525 0.502492,-0.01507 0.677102,4.61e-4 0.17461,0.01548 0.01277,0.02798 -0.359628,0.02775 -0.372406,-2.24e-4 -0.51527,-0.0129 -0.317474,-0.02816 z"
     id="path4" /><path
     style="fill:#00877b;stroke-width:0.232929"
     d="M 14.391653,56.912667 C 14.322428,56.884409 10.268797,52.231622 9.6382856,51.599908 7.8233528,49.781516 7.6004431,50.619996 8.199183,51.102946 c 1.945405,1.569187 1.7813178,0.458093 3.708661,-0.679585 0.968737,-0.571827 2.070567,-1.102222 4.326044,-2.082456 2.989915,-1.299423 4.067499,-1.850173 5.443014,-2.781913 0.386817,-0.262021 0.711017,-0.465822 0.720445,-0.452892 0.0094,0.01292 0.09516,0.239516 0.190505,0.503521 0.472495,1.308252 1.176774,2.347724 2.404082,3.548271 1.324974,1.296086 2.248294,1.927201 3.448526,2.357163 0.996395,0.35694 1.783065,0.468607 2.990593,0.424506 1.535692,-0.05608 2.574057,-0.303719 3.807219,-0.907975 1.895012,-0.928562 3.300964,-2.5264 4.283492,-4.868108 l 0.278862,-0.664628 0.253991,0.0247 c 0.497749,0.0484 2.565704,0.603405 4.004897,1.074843 1.963802,0.643289 3.484581,1.249919 5.201877,2.075 2.066467,0.992842 2.842253,1.521494 4.217874,2.87423 1.253837,1.232976 -1.100846,-0.16704 -0.19014,1.852337 1.199312,2.659328 -1.477138,0.437541 -2.317255,2.374075 -1.481822,3.415713 -6.539877,4.96692 -19.866533,5.651685 -15.076724,0.774689 -10.365796,-1.92176 -16.713684,-4.513053 z"
     id="path3"
     sodipodi:nodetypes="ssssssccssssscssssssss" /><path
     style="fill:#343434;stroke-width:0.232929"
     d="m 41.649207,29.400071 c 0.0131,-1.680776 -0.03648,-1.90851 -0.731293,-3.360063 -0.582006,-1.215883 -0.543,-1.103221 -0.684455,-1.976887 -0.329156,-2.032953 -0.976392,-2.959669 -2.61353,-3.742057 -0.466015,-0.22271 -1.151994,-0.490904 -1.524399,-0.595989 -1.575319,-0.444519 -4.192295,-0.710719 -5.556483,-0.565211 -0.754719,0.0805 -0.897844,0.132095 -2.064139,0.744079 -0.388988,0.204113 -0.881647,0.367851 -1.692754,0.562599 -1.915855,0.459999 -2.184058,0.670315 -2.724832,2.136704 -0.448916,1.217307 -0.796363,1.795229 -1.472512,2.449292 -0.78981,0.764011 -0.848159,0.944142 -0.846125,2.612115 7.05e-4,0.670167 0.02501,1.584031 0.05377,2.030809 l 0.05229,0.812324 -0.15823,-0.332315 c -0.08703,-0.182772 -0.307397,-0.750898 -0.489712,-1.262503 -0.393991,-1.105609 -0.590007,-1.566109 -0.778579,-1.829115 -0.07674,-0.107028 -0.163424,-0.393986 -0.192636,-0.637683 -0.02921,-0.243698 -0.152888,-1.041252 -0.274835,-1.772343 -0.497921,-2.985116 -0.439356,-4.531349 0.251729,-6.646285 0.216402,-0.662251 0.417095,-1.08414 1.457981,-3.064899 0.160141,-0.304744 0.38799,-0.778349 0.506328,-1.052455 0.11834,-0.274107 0.316232,-0.635328 0.439761,-0.802712 0.22034,-0.298566 0.231221,-0.303445 0.573789,-0.257357 l 0.34919,0.04698 0.979037,-0.991464 c 1.064957,-1.078478 2.117772,-1.9112962 2.913303,-2.3045393 0.593682,-0.2934635 0.611091,-0.296722 0.548321,-0.1025905 -0.03136,0.09699 -0.0086,0.1628501 0.06596,0.1909376 0.06261,0.023581 1.021349,-0.1753304 2.130535,-0.4420241 2.262704,-0.5440515 2.601682,-0.6012095 4.198473,-0.7079585 0.620676,-0.041495 1.206694,-0.096394 1.302259,-0.1220009 l 0.173759,-0.046559 -0.192567,0.278537 c -0.252693,0.3655041 -0.243733,0.4309631 0.05194,0.379489 0.13448,-0.023412 0.414148,-0.063567 0.621485,-0.089236 l 0.376976,-0.046669 0.23522,0.3215025 c 0.901525,1.2322282 2.367092,2.3449522 3.094824,2.3497302 0.225679,0.0014 0.279097,0.05121 0.616517,0.573941 0.509145,0.788768 0.502151,0.782519 0.680214,0.607738 0.08191,-0.08041 0.177175,-0.146191 0.211691,-0.146191 0.07453,0 0.608888,1.091724 0.868629,1.774662 0.650192,1.709551 1.060997,4.113649 1.147922,6.717813 0.04913,1.47164 -0.02783,2.657584 -0.269032,4.146084 -0.08132,0.501864 -0.17126,1.191815 -0.199856,1.533231 -0.04875,0.582097 -0.06749,0.634106 -0.300863,0.835239 -0.300433,0.258924 -0.475659,0.692347 -0.859345,2.125614 l -0.286654,1.07079 z"
     id="path2" /><ellipse
     style="fill:#000000;fill-opacity:0;stroke-width:1.00157"
     id="path10"
     cx="-80.716415"
     cy="151.8806"
     rx="55.386513"
     ry="49.307507" /></svg>
